<svg xmlns="http://www.w3.org/2000/svg" viewBox="0 0 821.4 210.42"><defs><style>.cls-1{fill:#162b4d;}</style></defs><title>atl-bitbucket-N800</title><g id="Layer_2" data-name="Layer 2"><g id="Layer_1-2" data-name="Layer 1"><path class="cls-1" d="M182.72,1.76A1.18,1.18,0,0,0,181.6.94h-11a1.17,1.17,0,0,0-1.12.82L155.67,45.65a1.18,1.18,0,0,0,1.12,1.53h7.55a1.17,1.17,0,0,0,1.13-.84L175,14.06a1.19,1.19,0,0,1,1.11-.81,1.14,1.14,0,0,1,1.09.84l4.42,15.3h-5.94a1.18,1.18,0,0,0-1.13.86l-1.7,6.05a1.2,1.2,0,0,0,.19,1,1.18,1.18,0,0,0,.94.47H184.1l2.66,8.55a1.18,1.18,0,0,0,1.12.83h7.56a1.18,1.18,0,0,0,1.12-1.53L182.72,1.76Z"/><path class="cls-1" d="M215.62,40.42a1.17,1.17,0,0,0-1.45-1,14.46,14.46,0,0,1-3.31.47c-1.72,0-2.48-.74-2.48-2.42V20.69h6.74a1.17,1.17,0,0,0,1.18-1.17V14.27a1.18,1.18,0,0,0-1.18-1.18h-6.74V5a1.17,1.17,0,0,0-.4-.88,1.21,1.21,0,0,0-.94-.28l-6.94,1a1.18,1.18,0,0,0-1,1.16v7.13h-3.77a1.18,1.18,0,0,0-1.18,1.18v5.25a1.17,1.17,0,0,0,1.18,1.17h3.77V38.59c0,6.15,3.23,9.27,9.61,9.27a25,25,0,0,0,6.91-1.12,1.18,1.18,0,0,0,.77-1.29l-.76-5Z"/><path class="cls-1" d="M228.47,0h-6.94a1.17,1.17,0,0,0-1.18,1.17V46a1.18,1.18,0,0,0,1.18,1.18h6.94A1.18,1.18,0,0,0,229.65,46V1.18A1.17,1.17,0,0,0,228.47,0Z"/><path class="cls-1" d="M251,34.68v4.09a12.47,12.47,0,0,1-5.74,1.49c-2.17,0-2.82-.66-2.82-2.83s.4-2.75,3-2.75Zm-4.65-22.27a44.77,44.77,0,0,0-10.9,1.41,1.17,1.17,0,0,0-.85,1.32l.81,5a1.19,1.19,0,0,0,1.39,1,45.12,45.12,0,0,1,8.39-.87c5,0,5.81,1.06,5.81,4.45v3h-7.44c-7.11,0-10.15,2.94-10.15,9.81,0,6.58,3.33,10.35,9.13,10.35a18.65,18.65,0,0,0,9.54-2.64l.29,1.09a1.18,1.18,0,0,0,1.14.87h5.61A1.18,1.18,0,0,0,260.28,46V24.87c0-9.08-3.78-12.46-14-12.46Z"/><path class="cls-1" d="M277.68,26.08c-4.31-1.11-4.31-1.15-4.31-3.52,0-1.59.15-2.35,3.7-2.35a58,58,0,0,1,8.33.82,1.15,1.15,0,0,0,.9-.21,1.18,1.18,0,0,0,.47-.8l.65-5.29a1.18,1.18,0,0,0-.9-1.29,45.48,45.48,0,0,0-9.44-1c-10.68,0-12.86,4-12.86,10.08,0,6.65,1.24,8.88,9.42,10.88,5.39,1.3,5.39,2.26,5.39,3.86,0,2.1-.18,2.82-3.71,2.82a36.57,36.57,0,0,1-9-1.21,1.19,1.19,0,0,0-.93.14,1.17,1.17,0,0,0-.53.78l-.92,5a1.18,1.18,0,0,0,.8,1.33,40,40,0,0,0,11,1.74c10.34,0,12.46-4.33,12.46-10.83,0-7.18-1.27-8.51-10.49-10.95Z"/><path class="cls-1" d="M304.51,26.08c-4.31-1.11-4.31-1.15-4.31-3.52,0-1.59.16-2.35,3.7-2.35a57.89,57.89,0,0,1,8.32.82,1.16,1.16,0,0,0,.9-.21,1.14,1.14,0,0,0,.46-.8l.66-5.29a1.17,1.17,0,0,0-.9-1.29,45.64,45.64,0,0,0-9.45-1c-10.67,0-12.86,4-12.86,10.08,0,6.65,1.24,8.88,9.42,10.88,5.39,1.3,5.39,2.26,5.39,3.86,0,2.1-.18,2.82-3.7,2.82a36.6,36.6,0,0,1-9-1.21,1.18,1.18,0,0,0-.93.14,1.17,1.17,0,0,0-.53.78l-.92,5a1.19,1.19,0,0,0,.8,1.33,40.05,40.05,0,0,0,11,1.74C312.88,47.86,315,43.53,315,37c0-7.18-1.28-8.51-10.5-10.95Z"/><path class="cls-1" d="M327,0H320a1.18,1.18,0,0,0-1.18,1.18V7.34A1.18,1.18,0,0,0,320,8.52H327a1.18,1.18,0,0,0,1.18-1.18V1.18A1.18,1.18,0,0,0,327,0Z"/><path class="cls-1" d="M327,13.09H320a1.18,1.18,0,0,0-1.18,1.18V46A1.18,1.18,0,0,0,320,47.18H327A1.18,1.18,0,0,0,328.15,46V14.27A1.18,1.18,0,0,0,327,13.09Z"/><path class="cls-1" d="M349.66,34.68v4.09a12.49,12.49,0,0,1-5.74,1.49c-2.16,0-2.82-.66-2.82-2.83s.41-2.75,3-2.75ZM345,12.42a44.76,44.76,0,0,0-10.89,1.41,1.18,1.18,0,0,0-.85,1.32l.81,5a1.19,1.19,0,0,0,.49.78,1.17,1.17,0,0,0,.9.19,45.19,45.19,0,0,1,8.39-.87c5,0,5.81,1.06,5.81,4.45v3h-7.44c-7.11,0-10.15,2.94-10.15,9.81,0,6.58,3.33,10.35,9.13,10.35a18.66,18.66,0,0,0,9.54-2.64l.3,1.09a1.17,1.17,0,0,0,1.13.87h5.61A1.18,1.18,0,0,0,359,46V24.87c0-9.08-3.78-12.46-14-12.46Z"/><path class="cls-1" d="M384.64,12.42a33.36,33.36,0,0,0-12.93,3.26l-.51-1.73a1.17,1.17,0,0,0-1.13-.85h-5.14a1.18,1.18,0,0,0-1.18,1.18V46a1.18,1.18,0,0,0,1.18,1.18h6.94A1.18,1.18,0,0,0,373.05,46V24c2.5-1.27,6-2.59,8.12-2.59,1.57,0,2.14.58,2.14,2.15V46a1.18,1.18,0,0,0,1.18,1.18h6.94A1.18,1.18,0,0,0,392.62,46V22.7c0-6.82-2.68-10.28-8-10.28Z"/><path class="cls-1" d="M391.88,184.1a103.71,103.71,0,0,1-11.93-.57V137c5.13-2.3,12.35-4.62,18.13-4.62,7.06,0,9.94,2.77,9.94,9.57v27.31c0,9.86-2.49,14.86-16.14,14.86Zm12.93-73.38a74.73,74.73,0,0,0-24.86,4.64V80.8a3.15,3.15,0,0,0-3.15-3.15H358.17A3.13,3.13,0,0,0,355,80.8v119a3.15,3.15,0,0,0,2.58,3.09,204.09,204.09,0,0,0,33.19,2.83c35,0,42.14-14.87,42.14-37.21v-26c0-21.08-9.47-31.76-28.13-31.76Z"/><path class="cls-1" d="M518.63,112.54H500a3.15,3.15,0,0,0-3.15,3.13v59c-6.71,3.4-16.15,6.93-21.78,6.93-4.19,0-5.74-1.55-5.74-5.75V115.67a3.17,3.17,0,0,0-3.19-3.13H447.58a3.14,3.14,0,0,0-3.15,3.13v62.51c0,18.28,7.2,27.56,21.37,27.56,9.87,0,23.31-3.39,34.65-8.73l1.37,4.64a3.16,3.16,0,0,0,3,2.26h13.77a3.15,3.15,0,0,0,3.15-3.15v-85.1a3.15,3.15,0,0,0-3.15-3.13Z"/><path class="cls-1" d="M593.57,184.65a3.12,3.12,0,0,0-3.82-2.61,74.13,74.13,0,0,1-16.2,1.87c-11.8,0-15.21-3-15.21-13.39v-24.6c0-10.4,3.42-13.4,15.21-13.4a82.54,82.54,0,0,1,16.2,1.87,3.15,3.15,0,0,0,2.49-.47,3,3,0,0,0,1.33-2.14l2.21-14.73a3.13,3.13,0,0,0-2.21-3.47A80,80,0,0,0,573,110.72c-28.13,0-39.6,10.25-39.6,35.39v24.23c0,25.14,11.47,35.39,39.6,35.39a76.71,76.71,0,0,0,20.55-2.86,3.15,3.15,0,0,0,2.21-3.48l-2.21-14.74Z"/><path class="cls-1" d="M708.59,147.49v-3c0-8.77,4.28-12.86,13.42-12.86,10.1,0,12.12,4.93,12.12,12.86v3Zm13.23-36.77c-25,0-38.15,12.43-38.15,35.94v23.5c0,24.26,12.36,35.57,38.89,35.57a98.52,98.52,0,0,0,31.57-5.17,3.2,3.2,0,0,0,2-3.62l-2.76-13.32a3.17,3.17,0,0,0-1.45-2,3.11,3.11,0,0,0-2.49-.34,90.62,90.62,0,0,1-24.91,3.6c-13.56,0-16-4.39-16-13.59V168H754.8a3.13,3.13,0,0,0,3.15-3.16V147.75c0-25.27-11.47-37-36.13-37Z"/><path class="cls-1" d="M274.07,112.5H255.46a3.16,3.16,0,0,0-3.15,3.15v85.08a3.15,3.15,0,0,0,3.15,3.15h18.61a3.14,3.14,0,0,0,3.17-3.15V115.65a3.14,3.14,0,0,0-3.17-3.15Z"/><path class="cls-1" d="M274.07,77.65H255.46a3.17,3.17,0,0,0-3.15,3.16v16a3.15,3.15,0,0,0,3.15,3.16h18.61a3.13,3.13,0,0,0,3.17-3.16v-16a3.15,3.15,0,0,0-3.17-3.16Z"/><path class="cls-1" d="M181.26,101.58H202c9.37,0,10.68,4.09,10.68,8.46v10.72c0,7-3.26,10-10.86,10h-4.47a3.16,3.16,0,0,0-3.17,3.16v14.78a3.16,3.16,0,0,0,3.17,3.16h8.09c8.12,0,11.41,3.14,11.41,10.85v9.1c0,7.84-3.37,10.49-13.42,10.49H181.26V101.58ZM227.2,139c7.71-4.24,11.06-10.19,11.06-19.33V107.16c0-18.32-11-27.22-33.57-27.22H158.75a3.14,3.14,0,0,0-3.13,3.14V200.73a3.15,3.15,0,0,0,3.13,3.15H208c21.92,0,34.49-10.64,34.49-29.21V161.75c0-11.08-5.62-19.35-15.25-22.74Z"/><path class="cls-1" d="M344,185.8a3.11,3.11,0,0,0-3.87-2.6,38.67,38.67,0,0,1-8.87,1.27c-4.6,0-6.65-2-6.65-6.48V132.91h18.07a3.15,3.15,0,0,0,3.15-3.15V115.69a3.15,3.15,0,0,0-3.15-3.15H324.59V90.86a3.16,3.16,0,0,0-3.6-3.12l-18.61,2.59a3.17,3.17,0,0,0-2.71,3.13v19.08H289.53a3.16,3.16,0,0,0-3.15,3.15v14.07a3.15,3.15,0,0,0,3.15,3.15h10.14v48c0,16.47,8.65,24.84,25.74,24.84a66.8,66.8,0,0,0,18.53-3A3.13,3.13,0,0,0,346,199.3l-2-13.5Z"/><path class="cls-1" d="M819.33,185.79a3.15,3.15,0,0,0-1.37-2.17,3.1,3.1,0,0,0-2.49-.43,39.07,39.07,0,0,1-8.89,1.27c-4.58,0-6.66-2-6.66-6.48V132.9H818a3.14,3.14,0,0,0,3.14-3.15V115.69a3.14,3.14,0,0,0-3.14-3.15H799.9V90.86a3.06,3.06,0,0,0-1.07-2.37,3.15,3.15,0,0,0-2.51-.75l-18.61,2.59A3.16,3.16,0,0,0,775,93.45v19.09H764.86a3.16,3.16,0,0,0-3.15,3.15v14.07a3.16,3.16,0,0,0,3.15,3.15H775v48c0,16.47,8.67,24.83,25.75,24.83a66.73,66.73,0,0,0,18.52-3,3.17,3.17,0,0,0,2.1-3.45l-2-13.5Z"/><path class="cls-1" d="M680.78,198.62,655.9,157.55l24-40.45a3.15,3.15,0,0,0-2.71-4.76H656.64a3.15,3.15,0,0,0-2.73,1.58L631.08,153.5V80.82a3.15,3.15,0,0,0-3.15-3.15H609.32a3.15,3.15,0,0,0-3.15,3.15V200.73a3.15,3.15,0,0,0,3.15,3.15h18.61a3.15,3.15,0,0,0,3.15-3.15V161.49l24.29,40.65a3.15,3.15,0,0,0,2.7,1.53h20.19a3.15,3.15,0,0,0,2.51-5.06Z"/><path class="cls-1" d="M61.16,95.76C39.52,95.73,22,92,22,87.36s17.55-8.31,39.19-8.27,39.17,3.79,39.16,8.4S82.8,95.8,61.16,95.76Zm0,61a19.44,19.44,0,1,1,19.45-19.44,19.45,19.45,0,0,1-19.45,19.44Zm0-87.53h0C27.5,69.19,0,78.25,0,89.49c0,3,7.34,45.41,10.26,62.25,1.31,7.55,20.82,18.62,50.9,18.62l0-.09v.09c30.08,0,49.59-11.07,50.9-18.62,2.91-16.84,10.26-59.29,10.26-62.25,0-11.24-27.5-20.29-61.17-20.29Z"/><path class="cls-1" d="M105.14,168.61a2.84,2.84,0,0,0-1.67.66S88.4,181.2,61.17,181.2s-42.29-11.93-42.29-11.93a2.85,2.85,0,0,0-1.68-.66A2.15,2.15,0,0,0,15,171a2.83,2.83,0,0,0,0,.52c2.34,12.51,4,21.39,4.35,22.74,2,9.21,20,16.15,41.73,16.15h0c21.69,0,39.69-6.95,41.73-16.15.3-1.35,2-10.23,4.35-22.74a2.8,2.8,0,0,0,0-.52,2.15,2.15,0,0,0-2.16-2.39Z"/><path class="cls-1" d="M70.9,137.27a9.75,9.75,0,1,1-9.75-9.74,9.74,9.74,0,0,1,9.75,9.74Z"/></g></g></svg>