<svg xmlns="http://www.w3.org/2000/svg" viewBox="0 0 588.69 208.22"><defs><style>.cls-1{fill:#162b4d;}</style></defs><title>atl-crowd-N800</title><g id="Layer_2" data-name="Layer 2"><g id="Layer_1-2" data-name="Layer 1"><path class="cls-1" d="M197.59,101.64a173.08,173.08,0,0,1,27.59,2.74,3.1,3.1,0,0,0,3.61-2.66l2.1-16.37a3.1,3.1,0,0,0-2.35-3.41,140.25,140.25,0,0,0-31.67-3.65c-29.49,0-44.44,12.26-44.44,36.43v54.6c0,24.17,14.95,36.43,44.44,36.43a140.24,140.24,0,0,0,31.67-3.65,3.1,3.1,0,0,0,2.35-3.41l-2.1-16.37a3.1,3.1,0,0,0-3.61-2.66,173.45,173.45,0,0,1-27.59,2.74c-14.68,0-19.63-4.31-19.63-17.08v-46.6c0-12.77,5-17.08,19.63-17.08Z"/><path class="cls-1" d="M288.44,114.21a3.1,3.1,0,0,0-4.09-2.6c-6.88,2.37-15,7-19.74,10l-.93-6.29a3.1,3.1,0,0,0-3.07-2.64H245.22a3.1,3.1,0,0,0-3.1,3.1v85a3.1,3.1,0,0,0,3.1,3.1h18.6a3.1,3.1,0,0,0,3.1-3.1V146.2a171.89,171.89,0,0,1,21.54-11.92,3.1,3.1,0,0,0,1.8-3.15l-1.81-16.91Z"/><path class="cls-1" d="M319.88,146.39c0-9.8,4.51-14,15.08-14s15.08,4.18,15.08,14v23.85c0,9.81-4.51,14-15.08,14s-15.08-4.19-15.08-14V146.39ZM335,110.87c-26.09,0-39.89,12.53-39.89,36.25v22.39c0,23.71,13.79,36.25,39.89,36.25s39.88-12.53,39.88-36.25V147.12c0-23.71-13.79-36.25-39.88-36.25Z"/><path class="cls-1" d="M501.33,112.69H484.25a3.1,3.1,0,0,0-3,2.54l-9.66,52.51L456,114.92a3.1,3.1,0,0,0-3-2.22H432.58a3.1,3.1,0,0,0-3,2.22l-15.73,52.86-9.67-52.54a3.1,3.1,0,0,0-3-2.54H384.08a3.1,3.1,0,0,0-3,3.66l15.71,85a3.1,3.1,0,0,0,3,2.54h22.82a3.1,3.1,0,0,0,3-2.22l17.12-58.18,17.12,58.18a3.1,3.1,0,0,0,3,2.22h22.82a3.1,3.1,0,0,0,3-2.54l15.72-85a3.1,3.1,0,0,0-3-3.66Z"/><path class="cls-1" d="M563.88,134.52v42.41c-4.1,3.58-11.46,7.29-18.54,7.29-6.92,0-9.62-2.8-9.62-10V142.93c0-7.58,2.75-10.53,9.8-10.53a96.58,96.58,0,0,1,18.35,2.12Zm21.71-56.84H567a3.1,3.1,0,0,0-3.1,3.1v32.35a123.26,123.26,0,0,0-22.36-2.26c-20.3,0-30.6,11-30.6,32.6v30.21c0,26.5,15.55,32.06,28.6,32.06a47.43,47.43,0,0,0,27.29-8.48l1.3,4.43a3.1,3.1,0,0,0,3,2.23h14.51a3.1,3.1,0,0,0,3.1-3.1V80.78a3.1,3.1,0,0,0-3.1-3.1Z"/><path class="cls-1" d="M96.15,115.91C91.06,123.23,84.41,130,78,136.55L76.6,138a1.66,1.66,0,0,0-.11,2.19c1.5,1.87,2.94,3.78,4.28,5.74,6.41,9.37,9.73,18.22,10.17,27.06a2.29,2.29,0,0,1-2.28,2.4H74.75a2.29,2.29,0,0,1-2.28-2.12c-1-13.22-12.16-24.62-24-36.7C42,130,35.4,123.23,30.31,115.91c-5.42-7.79-8.42-15.26-9.18-22.86a2.29,2.29,0,0,1,2.28-2.51,2.31,2.31,0,0,1,.82.15,113.39,113.39,0,0,0,14.54,4.51,2.86,2.86,0,0,1,2,1.74c3.34,9.14,11.86,17.81,20.79,26.93a2.31,2.31,0,0,0,1.68.79,2.35,2.35,0,0,0,1.68-.79c8.94-9.11,17.46-17.82,20.79-27a2.86,2.86,0,0,1,2-1.74,112.41,112.41,0,0,0,14.54-4.39,2.29,2.29,0,0,1,2.2.32,2.34,2.34,0,0,1,.89,2c-.76,7.6-3.76,15-9.18,22.77Zm-38.3,44.9A30.87,30.87,0,0,0,54,173.24a2.31,2.31,0,0,1-2.29,2.13H37.77A2.3,2.3,0,0,1,35.48,173c.42-8.44,3.47-16.89,9.32-25.79a2.27,2.27,0,0,1,1.89-1,2.3,2.3,0,0,1,1.62.7,129,129,0,0,1,9.26,10.5,3.23,3.23,0,0,1,.28,3.47ZM55.44,97.64c.89,0,3.41.26,7.77.26h0c4.36,0,6.88-.26,7.77-.26a2.12,2.12,0,0,1,2.1,2.12,2.27,2.27,0,0,1-.17.84,36.93,36.93,0,0,1-8.12,11.87,2.23,2.23,0,0,1-1.6.64h0a2.24,2.24,0,0,1-1.6-.64,36.88,36.88,0,0,1-8.12-11.87,2.24,2.24,0,0,1-.17-.84,2.12,2.12,0,0,1,2.1-2.12Zm67.69-14.06c-.89-.32-22.25-7.76-59.9-7.76s-59,7.44-59.9,7.76A5,5,0,0,0,0,88.29c0,42.67,14,72,25.76,89.1,13.76,20,29.57,30.82,37.47,30.82s23.71-10.8,37.47-30.83c11.75-17.1,25.76-46.44,25.76-89.1a5,5,0,0,0-3.32-4.71Z"/><path class="cls-1" d="M180.82,1.73A1.17,1.17,0,0,0,179.7.91h-11a1.18,1.18,0,0,0-1.12.82l-13.86,44a1.18,1.18,0,0,0,1.12,1.53h7.56a1.18,1.18,0,0,0,1.13-.84l9.55-32.33a1.19,1.19,0,0,1,1.11-.81,1.14,1.14,0,0,1,1.09.84l4.43,15.33h-6.09a1.18,1.18,0,0,0-1.13.86l-1.71,6.07a1.18,1.18,0,0,0,1.13,1.5H182.2l2.67,8.56a1.17,1.17,0,0,0,1.13.83h7.56a1.18,1.18,0,0,0,1.12-1.53l-13.86-44Z"/><path class="cls-1" d="M213.78,40.45a1.17,1.17,0,0,0-1.45-1A14.51,14.51,0,0,1,209,40c-1.72,0-2.49-.75-2.49-2.42V20.69h6.76a1.18,1.18,0,0,0,1.18-1.18V14.27a1.18,1.18,0,0,0-1.18-1.18h-6.76V5a1.18,1.18,0,0,0-1.34-1.17l-7,1a1.18,1.18,0,0,0-1,1.17v7.14h-3.79a1.18,1.18,0,0,0-1.18,1.18v5.25a1.18,1.18,0,0,0,1.18,1.18h3.79V38.63c0,6.16,3.24,9.28,9.62,9.28a24.84,24.84,0,0,0,6.92-1.12,1.18,1.18,0,0,0,.78-1.29l-.76-5Z"/><path class="cls-1" d="M226.65,0h-7a1.18,1.18,0,0,0-1.18,1.18V46a1.18,1.18,0,0,0,1.18,1.18h7A1.18,1.18,0,0,0,227.83,46V1.18A1.18,1.18,0,0,0,226.65,0Z"/><path class="cls-1" d="M249.2,34.71v4.1a12.47,12.47,0,0,1-5.75,1.5c-2.17,0-2.83-.66-2.83-2.83s.41-2.76,3-2.76Zm-4.66-22.3a44.75,44.75,0,0,0-10.91,1.41,1.18,1.18,0,0,0-.85,1.32l.82,5a1.17,1.17,0,0,0,1.38,1,45.68,45.68,0,0,1,8.41-.87c5,0,5.82,1.06,5.82,4.46v3h-7.45c-7.13,0-10.17,2.94-10.17,9.82,0,6.59,3.33,10.37,9.14,10.37a18.67,18.67,0,0,0,9.56-2.64l.3,1.09a1.17,1.17,0,0,0,1.13.87h5.62A1.18,1.18,0,0,0,258.52,46V24.88c0-9.1-3.79-12.48-14-12.48Z"/><path class="cls-1" d="M275.94,26.1c-4.32-1.11-4.32-1.16-4.32-3.53,0-1.59.16-2.35,3.71-2.35a57.78,57.78,0,0,1,8.34.82A1.18,1.18,0,0,0,285,20l.66-5.3a1.18,1.18,0,0,0-.9-1.29,45.73,45.73,0,0,0-9.46-1c-10.69,0-12.89,4-12.89,10.1,0,6.66,1.24,8.9,9.44,10.9,5.4,1.3,5.4,2.26,5.4,3.86,0,2.1-.18,2.83-3.71,2.83a36.63,36.63,0,0,1-9-1.21,1.17,1.17,0,0,0-1.46.93l-.92,5a1.18,1.18,0,0,0,.8,1.33,40.1,40.1,0,0,0,11,1.74c10.36,0,12.48-4.34,12.48-10.85,0-7.19-1.28-8.52-10.52-11Z"/><path class="cls-1" d="M302.81,26.1c-4.32-1.11-4.32-1.16-4.32-3.53,0-1.59.16-2.35,3.71-2.35a57.84,57.84,0,0,1,8.34.82,1.18,1.18,0,0,0,1.37-1l.65-5.3a1.18,1.18,0,0,0-.9-1.29,45.69,45.69,0,0,0-9.46-1c-10.7,0-12.89,4-12.89,10.1,0,6.66,1.23,8.9,9.43,10.9,5.4,1.3,5.4,2.26,5.4,3.86,0,2.1-.18,2.83-3.71,2.83a36.58,36.58,0,0,1-9-1.21,1.18,1.18,0,0,0-1.46.93l-.92,5a1.18,1.18,0,0,0,.8,1.33,40.13,40.13,0,0,0,11,1.74c10.36,0,12.48-4.34,12.48-10.85,0-7.19-1.28-8.52-10.51-11Z"/><path class="cls-1" d="M325.32,0h-7a1.18,1.18,0,0,0-1.18,1.18V7.35a1.18,1.18,0,0,0,1.18,1.18h7a1.18,1.18,0,0,0,1.18-1.18V1.18A1.18,1.18,0,0,0,325.32,0Z"/><path class="cls-1" d="M325.32,13.09h-7a1.18,1.18,0,0,0-1.18,1.18V46a1.17,1.17,0,0,0,1.18,1.18h7A1.17,1.17,0,0,0,326.5,46V14.27a1.18,1.18,0,0,0-1.18-1.18Z"/><path class="cls-1" d="M348,34.71v4.1a12.48,12.48,0,0,1-5.76,1.5c-2.16,0-2.83-.66-2.83-2.83s.41-2.76,3-2.76Zm-4.67-22.3a44.76,44.76,0,0,0-10.91,1.41,1.18,1.18,0,0,0-.85,1.32l.81,5a1.19,1.19,0,0,0,.49.78,1.17,1.17,0,0,0,.9.19,45.65,45.65,0,0,1,8.41-.87c5,0,5.82,1.06,5.82,4.46v3h-7.46c-7.12,0-10.17,2.94-10.17,9.82,0,6.59,3.33,10.37,9.15,10.37a18.67,18.67,0,0,0,9.56-2.64l.3,1.09a1.18,1.18,0,0,0,1.14.87h5.61A1.18,1.18,0,0,0,357.36,46V24.88c0-9.1-3.79-12.48-14-12.48Z"/><path class="cls-1" d="M383.08,12.41a33.34,33.34,0,0,0-12.95,3.26l-.51-1.74a1.18,1.18,0,0,0-1.13-.85h-5.15a1.18,1.18,0,0,0-1.18,1.18V46a1.18,1.18,0,0,0,1.18,1.18h7A1.18,1.18,0,0,0,371.47,46V24c2.51-1.27,6-2.59,8.14-2.59,1.57,0,2.15.58,2.15,2.15V46a1.18,1.18,0,0,0,1.18,1.18h7A1.18,1.18,0,0,0,391.07,46V22.71c0-6.84-2.69-10.3-8-10.3Z"/></g></g></svg>