<svg xmlns="http://www.w3.org/2000/svg" viewBox="0 0 952.14 219.57"><defs><style>.cls-1{fill:#162b4d;}</style></defs><title>atl-confluence-N800</title><g id="Layer_2" data-name="Layer 2"><g id="Layer_1-2" data-name="Layer 1"><path class="cls-1" d="M284.67,146.34c0-9.77,4.49-13.94,15-13.94s15,4.17,15,13.94v23.84c0,9.77-4.5,13.94-15,13.94s-15-4.17-15-13.94V146.34Zm15-35.57c-26.12,0-39.94,12.55-39.94,36.3v22.38c0,23.74,13.81,36.3,39.94,36.3s39.94-12.55,39.94-36.3V147.06c0-23.75-13.81-36.3-39.94-36.3Z"/><path class="cls-1" d="M407.2,110.77c-9.86,0-23.29,3.4-34.64,8.73l-1.36-4.64a3.16,3.16,0,0,0-3-2.27H354.4a3.15,3.15,0,0,0-3.15,3.15v85a3.15,3.15,0,0,0,3.15,3.15H373a3.15,3.15,0,0,0,3.15-3.15V141.88c6.7-3.41,16.13-6.93,21.77-6.93,4.19,0,5.75,1.56,5.75,5.75v60.08a3.15,3.15,0,0,0,3.15,3.15h18.6a3.15,3.15,0,0,0,3.15-3.15V138.33c0-18.29-7.19-27.56-21.37-27.56Z"/><path class="cls-1" d="M495.67,77.31a67.7,67.7,0,0,0-16.25-2c-19.89,0-29.56,9.43-29.56,28.83v11H439.53a3.15,3.15,0,0,0-3.15,3.15v14.05a3.15,3.15,0,0,0,3.15,3.15h10.33v65.24a3.15,3.15,0,0,0,3.15,3.15h18.61a3.15,3.15,0,0,0,3.15-3.15V135.54H493a3.15,3.15,0,0,0,3.14-2.92V118.56a3.15,3.15,0,0,0-3.14-3.38H474.77v-9.75c0-6.79,1.31-9.21,8.66-9.21a59.75,59.75,0,0,1,9,.92,3.15,3.15,0,0,0,3.65-2.67L498,80.79a3.15,3.15,0,0,0-2.34-3.48Z"/><path class="cls-1" d="M529.31,77.76H510.7a3.15,3.15,0,0,0-3.15,3.15V200.77a3.15,3.15,0,0,0,3.15,3.15h18.61a3.15,3.15,0,0,0,3.15-3.15V80.92a3.15,3.15,0,0,0-3.15-3.15Z"/><path class="cls-1" d="M620.43,112.59h-18.6a3.15,3.15,0,0,0-3.15,3.15v58.89c-6.7,3.41-16.12,6.94-21.76,6.94-4.19,0-5.75-1.56-5.75-5.75V115.74a3.15,3.15,0,0,0-3.15-3.15H549.41a3.15,3.15,0,0,0-3.15,3.15v62.45c0,18.29,7.19,27.56,21.37,27.56,9.86,0,23.29-3.4,34.64-8.73l1.36,4.64a3.15,3.15,0,0,0,3,2.27h13.78a3.15,3.15,0,0,0,3.15-3.15v-85a3.15,3.15,0,0,0-3.15-3.15Z"/><path class="cls-1" d="M659.31,147.53v-3c0-8.77,4.25-12.85,13.39-12.85,10.09,0,12.12,4.91,12.12,12.85v3Zm13.21-36.77c-24.94,0-38.12,12.42-38.12,35.93v23.47c0,24.27,12.34,35.57,38.84,35.57a98.06,98.06,0,0,0,31.56-5.18,3.15,3.15,0,0,0,2-3.6l-2.75-13.32a3.15,3.15,0,0,0-3.94-2.39,90.28,90.28,0,0,1-24.89,3.59c-13.55,0-15.94-4.38-15.94-13.57v-3.2h46.17a3.15,3.15,0,0,0,3.15-3.15V147.79c0-25.26-11.48-37-36.11-37Z"/><path class="cls-1" d="M775.86,110.77c-9.86,0-23.29,3.4-34.64,8.73l-1.36-4.64a3.15,3.15,0,0,0-3-2.27H723.06a3.15,3.15,0,0,0-3.15,3.15v85a3.15,3.15,0,0,0,3.15,3.15h18.6a3.15,3.15,0,0,0,3.15-3.15V141.88c6.7-3.41,16.13-6.93,21.76-6.93,4.19,0,5.75,1.56,5.75,5.75v60.08a3.15,3.15,0,0,0,3.15,3.15h18.6a3.15,3.15,0,0,0,3.15-3.15V138.33c0-18.29-7.19-27.56-21.37-27.56Z"/><path class="cls-1" d="M868.89,184.66a3.15,3.15,0,0,0-3.82-2.6,73.73,73.73,0,0,1-16.19,1.87c-11.8,0-15.21-3-15.21-13.39V146c0-10.39,3.41-13.39,15.21-13.39a83.33,83.33,0,0,1,16.19,1.86,3.15,3.15,0,0,0,3.82-2.6l2.21-14.72a3.15,3.15,0,0,0-2.22-3.49,79.74,79.74,0,0,0-20.54-2.86c-28.11,0-39.57,10.25-39.57,35.39v24.2c0,25.13,11.46,35.38,39.57,35.38a76.68,76.68,0,0,0,20.56-2.85,3.15,3.15,0,0,0,2.21-3.48l-2.21-14.74Z"/><path class="cls-1" d="M902.82,147.53v-3c0-8.77,4.26-12.85,13.39-12.85,10.09,0,12.12,4.91,12.12,12.85v3ZM916,110.77c-24.93,0-38.11,12.42-38.11,35.93v23.47c0,24.27,12.34,35.57,38.84,35.57a98.06,98.06,0,0,0,31.56-5.18,3.15,3.15,0,0,0,2-3.6l-2.75-13.32a3.15,3.15,0,0,0-3.94-2.39,90.28,90.28,0,0,1-24.89,3.59c-13.55,0-15.94-4.38-15.94-13.57v-3.2H949a3.15,3.15,0,0,0,3.15-3.15V147.79c0-25.26-11.48-37-36.12-37Z"/><path class="cls-1" d="M220.32,101.84a173.29,173.29,0,0,1,27.58,2.74,3.15,3.15,0,0,0,3.67-2.7l2.1-16.37A3.15,3.15,0,0,0,251.27,82a140.3,140.3,0,0,0-31.69-3.65c-29.52,0-44.49,12.27-44.49,36.48v54.6c0,24.2,15,36.48,44.49,36.48a140.45,140.45,0,0,0,31.69-3.65,3.15,3.15,0,0,0,2.39-3.47l-2.1-16.37a3.15,3.15,0,0,0-3.67-2.7,173.12,173.12,0,0,1-27.58,2.74c-14.64,0-19.58-4.3-19.58-17V118.87c0-12.73,4.94-17,19.58-17Z"/><path class="cls-1" d="M113.61,172.07a107.82,107.82,0,0,0-7.2-12.08c-2-2.93-4.14-5.78-6.39-8.57a2.46,2.46,0,0,1,.17-3.25l2.08-2.12c9.58-9.77,19.49-19.87,27.08-30.79,8.08-11.61,12.56-22.62,13.69-34a3.5,3.5,0,0,0-1.32-3,3.41,3.41,0,0,0-3.29-.47,167.74,167.74,0,0,1-21.68,6.55,4.26,4.26,0,0,0-3,2.6c-5,13.63-17.68,26.6-31,40.19a3.5,3.5,0,0,1-2.5,1.18,3.44,3.44,0,0,1-2.5-1.18c-13.33-13.59-26-26.52-31-40.15a4.27,4.27,0,0,0-3-2.6A169.19,169.19,0,0,1,22.1,77.65a3.41,3.41,0,0,0-4.61,3.52c1.13,11.33,5.61,22.48,13.69,34.09,7.6,10.91,17.5,21,27.08,30.79C75.9,164,92.58,181,94,200.76a3.41,3.41,0,0,0,3.4,3.16h20.74a3.41,3.41,0,0,0,3.41-3.58,62.48,62.48,0,0,0-1.6-11.16h0a1.44,1.44,0,0,1,0-.33,1.36,1.36,0,0,1,1.36-1.38l.19,0h0c16.93,2.48,27.63,6.44,27.65,10.8h0c0,4.11-9.62,10.31-25.27,14.85h0a3.27,3.27,0,0,0,.93,6.43,3.34,3.34,0,0,0,.74-.08c21-4.86,35-13,35-22.27,0-11-18.84-20.74-46.9-25.16Z"/><path class="cls-1" d="M58,161.38a3.42,3.42,0,0,0-2.42-1,3.38,3.38,0,0,0-2.81,1.53,105.51,105.51,0,0,0-5.95,10.21C18.81,176.5,0,186.27,0,197.22c0,9.24,13.84,17.39,34.91,22.26h0a3.36,3.36,0,0,0,.77.1,3.26,3.26,0,0,0,.94-6.41v0C21,208.6,11.37,202.4,11.37,198.29h0c0-4.35,10.69-8.31,27.58-10.79l.18,0a1.38,1.38,0,0,1,1.32,1.73h0a62.32,62.32,0,0,0-1.58,11.11,3.42,3.42,0,0,0,3.42,3.59H63a3.44,3.44,0,0,0,3.41-3.17,46.06,46.06,0,0,1,5.79-18.54,4.8,4.8,0,0,0-.42-5.18A191.68,191.68,0,0,0,58,161.38Z"/><path class="cls-1" d="M77.87,110.15a3.33,3.33,0,0,0,2.39.95h0a3.33,3.33,0,0,0,2.39-.95,55.06,55.06,0,0,0,12.1-17.7A3.38,3.38,0,0,0,95,91.19,3.16,3.16,0,0,0,91.87,88c-1.32,0-5.09.39-11.59.39h0C73.74,88.42,70,88,68.65,88a3.17,3.17,0,0,0-3.14,3.15,3.36,3.36,0,0,0,.25,1.26,55,55,0,0,0,12.1,17.7Z"/><path class="cls-1" d="M202.25,1.76a1.17,1.17,0,0,0-1.12-.82h-11a1.17,1.17,0,0,0-1.12.82L175.18,45.69a1.17,1.17,0,0,0,1.12,1.53h7.56a1.18,1.18,0,0,0,1.13-.84l9.54-32.31a1.19,1.19,0,0,1,1.11-.81,1.14,1.14,0,0,1,1.09.84l4.43,15.32h-5.95a1.17,1.17,0,0,0-1.13.86l-1.71,6.07a1.18,1.18,0,0,0,1.13,1.49h10.13l2.67,8.56a1.17,1.17,0,0,0,1.12.83H215a1.18,1.18,0,0,0,1.12-1.53L202.25,1.76Z"/><path class="cls-1" d="M235.18,40.45a1.18,1.18,0,0,0-1.45-1,14.51,14.51,0,0,1-3.31.47c-1.72,0-2.49-.75-2.49-2.42V20.71h6.75a1.18,1.18,0,0,0,1.18-1.18V14.28a1.18,1.18,0,0,0-1.18-1.18h-6.75V5a1.18,1.18,0,0,0-1.34-1.16l-6.95,1a1.18,1.18,0,0,0-1,1.17v7.14h-3.79a1.18,1.18,0,0,0-1.18,1.18v5.25a1.18,1.18,0,0,0,1.18,1.18h3.79V38.63c0,6.15,3.24,9.27,9.61,9.27a24.9,24.9,0,0,0,6.91-1.12,1.18,1.18,0,0,0,.78-1.29l-.76-5Z"/><path class="cls-1" d="M248,0H241.1a1.18,1.18,0,0,0-1.18,1.18V46a1.18,1.18,0,0,0,1.18,1.18H248A1.18,1.18,0,0,0,249.23,46V1.18A1.18,1.18,0,0,0,248,0Z"/><path class="cls-1" d="M270.58,34.71v4.09a12.48,12.48,0,0,1-5.75,1.49c-2.17,0-2.83-.66-2.83-2.83s.41-2.76,3-2.76Zm-4.66-22.29A44.69,44.69,0,0,0,255,13.84a1.17,1.17,0,0,0-.85,1.32l.81,5a1.17,1.17,0,0,0,1.39,1,45.61,45.61,0,0,1,8.4-.87c5,0,5.82,1.06,5.82,4.46v3h-7.45C256,27.72,253,30.66,253,37.54c0,6.58,3.33,10.36,9.14,10.36a18.66,18.66,0,0,0,9.55-2.64l.3,1.09a1.18,1.18,0,0,0,1.13.87h5.61A1.18,1.18,0,0,0,279.88,46V24.9c0-9.09-3.79-12.47-14-12.47Z"/><path class="cls-1" d="M297.3,26.11C293,25,293,25,293,22.58c0-1.59.16-2.35,3.71-2.35a57.64,57.64,0,0,1,8.33.82,1.18,1.18,0,0,0,1.37-1l.65-5.3a1.18,1.18,0,0,0-.9-1.29,45.6,45.6,0,0,0-9.45-1c-10.69,0-12.88,4-12.88,10.09,0,6.66,1.24,8.9,9.43,10.89,5.39,1.3,5.39,2.26,5.39,3.86,0,2.1-.18,2.83-3.71,2.83a36.6,36.6,0,0,1-9-1.21,1.18,1.18,0,0,0-1.46.93l-.92,5a1.17,1.17,0,0,0,.79,1.33,40.13,40.13,0,0,0,11,1.74c10.35,0,12.47-4.33,12.47-10.84,0-7.18-1.27-8.51-10.51-11Z"/><path class="cls-1" d="M324.15,26.11c-4.31-1.11-4.31-1.16-4.31-3.52,0-1.59.16-2.35,3.71-2.35a57.55,57.55,0,0,1,8.33.82,1.18,1.18,0,0,0,1.37-1l.66-5.3a1.18,1.18,0,0,0-.9-1.29,45.59,45.59,0,0,0-9.45-1c-10.69,0-12.88,4-12.88,10.09,0,6.66,1.24,8.9,9.43,10.89,5.39,1.3,5.39,2.26,5.39,3.86,0,2.1-.18,2.83-3.71,2.83a36.61,36.61,0,0,1-9-1.21,1.18,1.18,0,0,0-1.46.93l-.92,5a1.18,1.18,0,0,0,.8,1.33,40.14,40.14,0,0,0,11,1.74c10.35,0,12.47-4.33,12.47-10.84,0-7.18-1.28-8.51-10.51-11Z"/><path class="cls-1" d="M346.64,0h-6.95a1.18,1.18,0,0,0-1.18,1.18V7.35a1.18,1.18,0,0,0,1.18,1.18h6.95a1.18,1.18,0,0,0,1.18-1.18V1.18A1.18,1.18,0,0,0,346.64,0Z"/><path class="cls-1" d="M346.64,13.11h-6.95a1.18,1.18,0,0,0-1.18,1.18V46a1.18,1.18,0,0,0,1.18,1.18h6.95A1.18,1.18,0,0,0,347.82,46V14.28a1.18,1.18,0,0,0-1.18-1.18Z"/><path class="cls-1" d="M369.35,34.71v4.09a12.49,12.49,0,0,1-5.75,1.49c-2.17,0-2.83-.66-2.83-2.83s.41-2.76,3-2.76Zm-4.66-22.29a44.7,44.7,0,0,0-10.91,1.41,1.18,1.18,0,0,0-.85,1.32l.81,5a1.18,1.18,0,0,0,1.39,1,45.62,45.62,0,0,1,8.4-.87c5,0,5.82,1.06,5.82,4.46v3H361.9c-7.12,0-10.16,2.94-10.16,9.82,0,6.58,3.33,10.36,9.14,10.36a18.66,18.66,0,0,0,9.55-2.64l.3,1.09a1.18,1.18,0,0,0,1.13.87h5.61A1.18,1.18,0,0,0,378.65,46V24.9c0-9.09-3.79-12.47-14-12.47Z"/><path class="cls-1" d="M404.35,12.43a33.3,33.3,0,0,0-12.94,3.26L390.91,14a1.18,1.18,0,0,0-1.13-.85h-5.15a1.17,1.17,0,0,0-1.18,1.18V46a1.18,1.18,0,0,0,1.18,1.18h6.95A1.18,1.18,0,0,0,392.76,46V24c2.5-1.27,6-2.59,8.13-2.59,1.57,0,2.15.58,2.15,2.15V46a1.18,1.18,0,0,0,1.18,1.18h6.95A1.18,1.18,0,0,0,412.33,46V22.72c0-6.83-2.68-10.29-8-10.29Z"/></g></g></svg>