<?xml version="1.0" encoding="utf-8"?>
<!-- Generator: Adobe Illustrator 16.0.3, SVG Export Plug-In . SVG Version: 6.00 Build 0)  -->
<!DOCTYPE svg PUBLIC "-//W3C//DTD SVG 1.1//EN" "http://www.w3.org/Graphics/SVG/1.1/DTD/svg11.dtd">
<svg version="1.1" id="Layer_1" xmlns="http://www.w3.org/2000/svg" xmlns:xlink="http://www.w3.org/1999/xlink" x="0px" y="0px"
	 width="256px" height="257px" viewBox="0 0 256 257" enable-background="new 0 0 256 257" xml:space="preserve">
<g>
	<path fill="#DA4E31" d="M85,14.115c-39.272,0-71.111,31.836-71.111,71.109c0,39.272,31.839,71.11,71.111,71.11
		c39.272,0,71.11-31.837,71.11-71.11C156.11,45.951,124.271,14.115,85,14.115L85,14.115z M85,147.204
		c-11.174,0-20.232-7.464-20.232-16.669h40.465C105.232,139.738,96.173,147.204,85,147.204L85,147.204z M118.418,125.015h-66.84
		v-12.12h66.842v12.12H118.418z M118.179,106.656h-66.41c-0.22-0.255-0.447-0.505-0.66-0.763
		c-6.842-8.308-8.453-12.645-10.018-17.065c-0.026-0.146,8.296,1.7,14.198,3.028c0,0,3.037,0.703,7.477,1.512
		c-4.263-4.997-6.794-11.349-6.794-17.842c0-14.254,10.933-26.71,6.989-36.779c3.839,0.313,7.945,8.102,8.222,20.281
		c4.081-5.64,5.789-15.938,5.789-22.253c0-6.539,4.308-14.133,8.618-14.393c-3.841,6.331,0.995,11.758,5.294,25.222
		c1.613,5.058,1.408,13.568,2.652,18.966c0.413-11.21,2.341-27.567,9.452-33.214c-3.137,7.112,0.465,16.01,2.928,20.289
		c3.974,6.901,6.384,12.13,6.384,22.021c0,6.63-2.449,12.874-6.579,17.754c4.696-0.881,7.938-1.675,7.938-1.675l15.25-2.975
		C128.909,88.769,126.693,97.881,118.179,106.656L118.179,106.656z"/>
</g>
<g id="Layer_2">
	
		<linearGradient id="SVGID_1_" gradientUnits="userSpaceOnUse" x1="-51.0825" y1="58.7109" x2="-51.0825" y2="205.5858" gradientTransform="matrix(1 0 0 -1 202.5 337)">
		<stop  offset="0" style="stop-color:#FFF200"/>
		<stop  offset="1" style="stop-color:#F15A29"/>
	</linearGradient>
	<path fill="url(#SVGID_1_)" d="M176.877,190.259c-0.483-0.615-1.363-0.791-2.067-0.396c-0.176,0.088-0.352,0.176-0.527,0.264
		c-0.616,0.309-1.231,0.572-1.892,0.792s-1.363,0.396-2.067,0.527c-0.352,0.044-0.704,0.089-1.1,0.132
		c-0.176,0-0.352,0.045-0.571,0.045c-0.176,0-0.396,0-0.528,0c-0.176,0-0.352,0-0.527,0c-0.22,0-0.44,0-0.66-0.045
		c0,0-0.132,0-0.044,0h-0.088h-0.132c-0.088,0-0.22,0-0.308-0.043c-0.22-0.045-0.396-0.045-0.616-0.089
		c-1.628-0.22-3.255-0.703-4.795-1.407c-1.583-0.703-3.078-1.671-4.441-2.902c-1.364-1.231-2.552-2.684-3.476-4.355
		c-0.923-1.671-1.583-3.519-1.891-5.453c-0.132-0.968-0.221-1.979-0.176-2.947c0-0.265,0.044-0.528,0.044-0.792
		c0,0.088,0-0.044,0-0.044v-0.088v-0.22c0-0.132,0.044-0.264,0.044-0.396c0.044-0.528,0.132-1.057,0.22-1.584
		c0.747-4.223,2.858-8.357,6.113-11.479c0.836-0.792,1.716-1.496,2.64-2.155c0.923-0.66,1.936-1.232,2.99-1.716
		c1.057-0.483,2.111-0.88,3.256-1.188c1.1-0.308,2.242-0.484,3.431-0.616c0.571-0.044,1.144-0.088,1.759-0.088
		c0.177,0,0.264,0,0.396,0h0.483h0.308c0.132,0,0,0,0.044,0h0.132l0.484,0.044c1.275,0.089,2.507,0.265,3.738,0.572
		c2.463,0.527,4.883,1.451,7.126,2.683c4.486,2.508,8.312,6.378,10.644,11.04c1.188,2.331,2.023,4.839,2.42,7.434
		c0.088,0.66,0.176,1.32,0.22,1.979l0.044,0.483l0.044,0.484c0,0.176,0,0.352,0,0.483c0,0.176,0,0.353,0,0.484v0.439v0.484
		c0,0.308-0.044,0.835-0.044,1.144c-0.044,0.703-0.132,1.451-0.22,2.155c-0.088,0.703-0.22,1.407-0.352,2.111
		c-0.133,0.703-0.309,1.407-0.484,2.067c-0.352,1.363-0.792,2.727-1.319,4.09c-1.056,2.64-2.463,5.19-4.135,7.521
		c-3.387,4.662-8.005,8.445-13.239,10.864c-2.64,1.188-5.41,2.067-8.27,2.507c-1.407,0.265-2.858,0.396-4.31,0.44h-0.265h-0.22
		h-0.483h-0.704h-0.352c0.176,0-0.044,0-0.044,0h-0.132c-0.792,0-1.54-0.045-2.332-0.132c-3.078-0.221-6.113-0.792-9.104-1.628
		c-2.947-0.835-5.806-2.023-8.533-3.431c-5.41-2.902-10.248-6.861-14.075-11.656c-1.891-2.375-3.562-4.97-4.926-7.653
		c-1.363-2.683-2.463-5.542-3.255-8.4c-0.792-2.903-1.275-5.851-1.495-8.841l-0.044-0.572v-0.132v-0.132v-0.264v-0.484v-0.132
		v-0.176v-0.352v-0.704v-0.132c0,0,0,0.044,0-0.044v-0.265c0-0.352,0-0.747,0-1.1c0.044-1.451,0.176-2.99,0.352-4.486
		c0.176-1.495,0.439-3.034,0.748-4.53c0.308-1.495,0.659-2.991,1.1-4.486c0.835-2.946,1.891-5.806,3.122-8.489
		c2.508-5.366,5.763-10.16,9.677-13.986c0.968-0.968,1.979-1.848,3.035-2.728c1.056-0.836,2.155-1.627,3.299-2.375
		c1.1-0.748,2.287-1.407,3.475-2.023c0.572-0.308,1.188-0.615,1.804-0.88c0.308-0.132,0.615-0.264,0.924-0.396
		c0.308-0.132,0.615-0.264,0.924-0.396c1.231-0.528,2.507-0.968,3.826-1.364c0.308-0.088,0.659-0.176,0.968-0.308
		c0.308-0.088,0.659-0.176,0.968-0.264c0.659-0.176,1.319-0.352,1.979-0.484c0.308-0.088,0.659-0.132,1.011-0.22
		c0.353-0.088,0.66-0.132,1.012-0.22c0.353-0.044,0.66-0.132,1.012-0.176l0.484-0.088l0.483-0.088
		c0.353-0.044,0.66-0.088,1.012-0.132c0.396-0.044,0.748-0.089,1.144-0.133c0.309-0.044,0.836-0.088,1.144-0.132
		c0.22-0.044,0.484-0.044,0.704-0.088l0.483-0.044l0.22-0.044h0.265c0.396-0.044,0.747-0.044,1.144-0.088l0.572-0.044
		c0,0,0.22,0,0.044,0h0.132h0.264c0.308,0,0.66-0.044,0.968-0.044c1.275-0.044,2.595-0.044,3.87,0
		c2.551,0.088,5.059,0.396,7.478,0.836c4.883,0.924,9.457,2.463,13.591,4.53c4.179,2.023,7.873,4.53,11.129,7.257
		c0.22,0.177,0.396,0.353,0.615,0.528c0.177,0.176,0.396,0.352,0.572,0.527c0.396,0.353,0.747,0.704,1.144,1.056
		c0.396,0.353,0.747,0.704,1.1,1.056c0.352,0.353,0.703,0.704,1.056,1.1c1.363,1.452,2.639,2.903,3.782,4.398
		c2.287,2.947,4.135,5.938,5.586,8.753c0.088,0.176,0.177,0.353,0.264,0.528c0.088,0.176,0.177,0.352,0.265,0.527
		c0.176,0.353,0.352,0.704,0.483,1.012c0.176,0.353,0.308,0.66,0.484,1.012c0.132,0.352,0.308,0.66,0.439,1.012
		c0.527,1.319,1.056,2.552,1.451,3.783c0.66,1.935,1.144,3.65,1.54,5.146c0.132,0.616,0.703,1.012,1.319,0.924l0,0
		c0.659-0.044,1.144-0.571,1.144-1.231c0.044-1.627,0-3.519-0.176-5.674c-0.265-2.684-0.704-5.762-1.584-9.192
		c-0.88-3.388-2.199-7.126-4.134-10.997c-1.936-3.87-4.443-7.873-7.697-11.787c-1.276-1.54-2.684-3.035-4.179-4.486
		c2.243-8.93-2.728-16.671-2.728-16.671c-8.577-0.527-14.03,2.684-16.054,4.135c-0.353-0.132-0.66-0.308-1.012-0.439
		c-1.452-0.572-2.947-1.144-4.486-1.628c-1.54-0.483-3.123-0.924-4.751-1.319c-1.627-0.396-3.255-0.704-4.926-0.968
		c-0.309-0.044-0.572-0.088-0.88-0.132c-3.783-11.92-14.515-16.934-14.515-16.934c-12.008,7.608-14.251,18.253-14.251,18.253
		c0.088,0.176,0.22,0.352,0.308,0.484c-0.792,0.22-1.628,0.483-2.419,0.703c-0.924,0.264-1.848,0.616-2.728,0.968
		c-0.923,0.353-1.803,0.704-2.727,1.1c-1.804,0.792-3.607,1.672-5.366,2.64c-1.76,0.968-3.475,2.067-5.146,3.254
		c-0.044,0.045-0.088,0.089-0.176,0.133c-0.088-0.265-0.132-0.396-0.132-0.396c-16.582-6.334-31.361,1.276-31.361,1.276
		c-1.363,17.682,6.642,28.766,8.226,30.789c-0.396,1.1-0.748,2.199-1.1,3.299c-1.231,4.002-2.155,8.093-2.728,12.359
		c-0.088,0.615-0.176,1.231-0.22,1.847C82.53,169.498,78,185.025,78,185.025c12.8,14.734,27.71,15.614,27.71,15.614l0.044-0.044
		c1.892,3.387,4.091,6.598,6.554,9.633c1.056,1.275,2.111,2.463,3.255,3.65c-4.662,13.327,0.66,24.455,0.66,24.455
		c14.251,0.528,23.619-6.245,25.599-7.785c1.407,0.484,2.859,0.924,4.311,1.275c4.398,1.144,8.885,1.804,13.327,1.979
		c1.1,0.044,2.243,0.088,3.343,0.044h0.528h0.352h0.704l0.703-0.044v0.044c6.729,9.589,18.518,10.952,18.518,10.952
		c9.501-9.984,8.885-19.925,8.885-19.925c-0.088-0.088-0.176-0.132-0.264-0.22c1.848-1.276,3.607-2.684,5.278-4.179
		c3.343-3.035,6.29-6.51,8.753-10.248c0.22-0.353,0.439-0.704,0.659-1.057c9.501,0.528,16.23-5.894,16.23-5.894
		c-1.759-11.084-8.62-15.834-8.62-15.834c-0.089,0-0.133,0.044-0.22,0.044c0.087-0.66,0.131-1.319,0.175-1.979
		c0.089-1.056,0.089-2.155,0.089-3.211v-0.791v-0.396v-0.22c0-0.264,0-0.177,0-0.264l-0.044-0.66l-0.045-0.88
		c0-0.308-0.044-0.572-0.088-0.836s-0.044-0.571-0.087-0.836l-0.089-0.835l-0.132-0.836c-0.176-1.1-0.352-2.155-0.615-3.255
		c-1.012-4.267-2.684-8.312-4.839-11.964c-2.199-3.65-4.927-6.861-8.005-9.589c-3.079-2.727-6.554-4.926-10.16-6.554
		c-3.607-1.627-7.434-2.683-11.217-3.166c-1.891-0.265-3.782-0.353-5.674-0.309h-0.703h-0.177c-0.044,0-0.264,0-0.22,0h-0.308
		l-0.704,0.044c-0.264,0-0.527,0.044-0.748,0.044c-0.967,0.088-1.935,0.221-2.858,0.396c-3.782,0.703-7.302,2.067-10.469,3.959
		c-3.122,1.891-5.85,4.222-8.049,6.861c-2.199,2.639-3.915,5.586-5.103,8.62c-1.188,3.035-1.847,6.202-2.022,9.237
		c-0.044,0.747-0.044,1.539-0.044,2.287c0,0.176,0,0.396,0,0.572l0.044,0.615c0.044,0.352,0.044,0.748,0.088,1.1
		c0.132,1.539,0.439,3.035,0.835,4.442c0.836,2.859,2.155,5.454,3.783,7.653c1.627,2.199,3.606,4.003,5.674,5.454
		c2.067,1.408,4.311,2.419,6.51,3.079s4.398,0.924,6.466,0.924c0.264,0,0.527,0,0.747,0c0.133,0,0.265,0,0.396,0
		s0.264,0,0.396-0.044c0.22,0,0.44-0.044,0.66-0.044c0.044,0,0.132,0,0.176-0.044l0.22-0.044c0.132,0,0.264-0.045,0.396-0.045
		c0.264-0.043,0.483-0.088,0.747-0.132c0.265-0.043,0.484-0.088,0.704-0.176c0.483-0.088,0.924-0.264,1.363-0.396
		c0.88-0.308,1.716-0.66,2.507-1.056c0.792-0.396,1.496-0.88,2.199-1.319c0.177-0.132,0.396-0.264,0.572-0.44
		C177.361,192.019,177.449,190.963,176.877,190.259L176.877,190.259z"/>
</g>
</svg>
