<svg xmlns="http://www.w3.org/2000/svg" viewBox="0 0 1114.28 212.14"><defs><style>.cls-1{fill:#162b4d;}</style></defs><title>atl-jira software-N800</title><g id="Layer_2" data-name="Layer 2"><g id="Layer_1-2" data-name="Layer 1"><path class="cls-1" d="M312.76,128c0,10-3.84,13.39-15.21,13.39H273V103h24.5c12.67,0,15.21,5,15.21,13v12Zm98.53-45.74a3.15,3.15,0,0,0-3-2.2H378.88a3.15,3.15,0,0,0-3,2.2l-34,107.89L320.93,160c11.59-4.81,17.46-14.89,17.46-30V114.17c0-23.59-12.32-34.11-39.94-34.11H250.57a3.15,3.15,0,0,0-3.15,3.15V200.84a3.15,3.15,0,0,0,3.15,3.15H269.9a3.15,3.15,0,0,0,3.15-3.15V163.95h19.78l26.91,38.69a3.15,3.15,0,0,0,2.59,1.35H362a3.15,3.15,0,0,0,3-2.26l25.54-86.51a3.18,3.18,0,0,1,3-2.16,3.06,3.06,0,0,1,2.92,2.25l11.85,41H392.07a3.15,3.15,0,0,0-3,2.3l-4.57,16.24a3.15,3.15,0,0,0,3,4H415l7.14,22.9a3.15,3.15,0,0,0,3,2.21h20.25a3.15,3.15,0,0,0,3-4.1L411.28,82.27Z"/><path class="cls-1" d="M223.86,80H204.52a3.15,3.15,0,0,0-3.15,3.15V200.77a3.15,3.15,0,0,0,3.15,3.15h19.33a3.15,3.15,0,0,0,3.15-3.15V83.15A3.15,3.15,0,0,0,223.86,80Z"/><path class="cls-1" d="M273,102.9h24.5c12.67,0,15.21,5,15.21,13v12c0,10-3.84,13.39-15.21,13.39H273V102.9Zm74.79,95.82L320.86,159.9c11.59-4.81,17.46-14.88,17.46-30V114.11C338.32,90.52,326,80,298.38,80H250.5a3.15,3.15,0,0,0-3.15,3.15V200.77a3.15,3.15,0,0,0,3.15,3.15h19.33a3.15,3.15,0,0,0,3.15-3.15V163.88h19.79l26.91,38.69a3.15,3.15,0,0,0,2.59,1.35h23.12a3.15,3.15,0,0,0,2.39-5.2Z"/><path class="cls-1" d="M411.21,82.2a3.15,3.15,0,0,0-3-2.2h-29.4a3.15,3.15,0,0,0-3,2.2L338.72,199.82a3.15,3.15,0,0,0,3,4.1H362a3.15,3.15,0,0,0,3-2.26l25.54-86.51a3.18,3.18,0,0,1,3-2.16,3.06,3.06,0,0,1,2.92,2.25l11.85,41H392a3.15,3.15,0,0,0-3,2.3L384.4,174.8a3.15,3.15,0,0,0,3,4H414.9l7.14,22.9a3.15,3.15,0,0,0,3,2.21h20.25a3.15,3.15,0,0,0,3-4.1L411.21,82.2Z"/><path class="cls-1" d="M178.58,80H159a3,3,0,0,0-3,3v92c0,11.57-8.81,15.37-14.78,15.67A3.1,3.1,0,0,0,139,192a3,3,0,0,0-.39,2.57l4.76,15.48c.39,1.27,1.75,2.08,4,2.08a34,34,0,0,0,34.27-34.4V83a3,3,0,0,0-3-3Z"/><path class="cls-1" d="M27.05,47.91A10.89,10.89,0,1,0,37.93,58.8,10.87,10.87,0,0,0,27.05,47.91Z"/><path class="cls-1" d="M98.53,47.91A10.89,10.89,0,1,0,109.41,58.8,10.87,10.87,0,0,0,98.53,47.91Z"/><path class="cls-1" d="M62.79,38A10.89,10.89,0,1,0,73.67,48.86,10.87,10.87,0,0,0,62.79,38Z"/><path class="cls-1" d="M124.25,78.25a3.41,3.41,0,0,0-3.29-.47,167.8,167.8,0,0,1-21.68,6.55,4.26,4.26,0,0,0-3,2.6c-5,13.63-17.68,26.6-31,40.19a3.5,3.5,0,0,1-2.5,1.18,3.45,3.45,0,0,1-2.5-1.18C47,113.53,34.26,100.6,29.29,87a4.27,4.27,0,0,0-3-2.6A168.31,168.31,0,0,1,4.61,77.76a3.43,3.43,0,0,0-1.22-.23,3.36,3.36,0,0,0-2.06.69,3.41,3.41,0,0,0-1.32,3c1.13,11.33,5.61,22.41,13.69,34,7.6,10.91,17.5,21,27.08,30.79,17.65,18,34.32,35,35.79,54.72a3.41,3.41,0,0,0,3.4,3.16h20.74a3.41,3.41,0,0,0,3.41-3.58C103.46,187.16,98.5,174,88.95,160c-2-2.93-4.15-5.78-6.39-8.57a2.48,2.48,0,0,1,.17-3.26L84.8,146c9.58-9.77,19.49-19.87,27.08-30.79,8.08-11.61,12.56-22.62,13.68-34a3.5,3.5,0,0,0-1.32-3Z"/><path class="cls-1" d="M40.54,161.38a3.16,3.16,0,0,0-2.42-1,3.41,3.41,0,0,0-2.81,1.6c-8.72,13.27-13.23,25.8-13.85,38.39a3.42,3.42,0,0,0,3.42,3.59h20.7A3.44,3.44,0,0,0,49,200.75a46,46,0,0,1,5.78-18.54,4.8,4.8,0,0,0-.42-5.18,191.4,191.4,0,0,0-13.81-15.66Z"/><path class="cls-1" d="M62.81,88.41c6.5,0,10.27-.39,11.59-.39a3.16,3.16,0,0,1,3.14,3.15,3.38,3.38,0,0,1-.25,1.26,55.09,55.09,0,0,1-12.1,17.71,3.33,3.33,0,0,1-2.39.95h0a3.33,3.33,0,0,1-2.39-.95A55,55,0,0,1,48.3,92.43,3.36,3.36,0,0,1,48,91.17,3.17,3.17,0,0,1,51.18,88c1.32,0,5.09.39,11.59.39Z"/><path class="cls-1" d="M182.87,1.76a1.18,1.18,0,0,0-1.12-.82h-11a1.18,1.18,0,0,0-1.12.82L155.8,45.69a1.18,1.18,0,0,0,1.12,1.53h7.56a1.17,1.17,0,0,0,1.13-.84l9.54-32.31a1.19,1.19,0,0,1,1.11-.81,1.14,1.14,0,0,1,1.09.84l4.42,15.32h-5.94a1.18,1.18,0,0,0-1.14.86L173,36.35a1.18,1.18,0,0,0,1.13,1.5h10.13l2.67,8.56a1.18,1.18,0,0,0,1.12.83h7.56a1.18,1.18,0,0,0,1.12-1.53L182.87,1.76Z"/><path class="cls-1" d="M215.8,40.45a1.17,1.17,0,0,0-1.45-1A14.47,14.47,0,0,1,211,40c-1.72,0-2.49-.75-2.49-2.42V20.71h6.75a1.17,1.17,0,0,0,1.18-1.18V14.28a1.17,1.17,0,0,0-1.18-1.18h-6.75V5a1.18,1.18,0,0,0-1.34-1.16l-7,1a1.18,1.18,0,0,0-1,1.17v7.14h-3.79a1.18,1.18,0,0,0-1.18,1.18v5.25a1.18,1.18,0,0,0,1.18,1.18h3.79V38.63c0,6.15,3.24,9.27,9.61,9.27a25,25,0,0,0,6.91-1.12,1.18,1.18,0,0,0,.78-1.29l-.76-5Z"/><path class="cls-1" d="M228.67.08h-6.95a1.18,1.18,0,0,0-1.18,1.18V46a1.18,1.18,0,0,0,1.18,1.18h6.95A1.18,1.18,0,0,0,229.85,46V1.26A1.18,1.18,0,0,0,228.67.08Z"/><path class="cls-1" d="M251.2,34.71v4.09a12.5,12.5,0,0,1-5.75,1.49c-2.17,0-2.83-.66-2.83-2.83s.41-2.76,3-2.76Zm-4.66-22.29a44.7,44.7,0,0,0-10.91,1.41,1.18,1.18,0,0,0-.85,1.32l.81,5a1.18,1.18,0,0,0,1.39,1,45.66,45.66,0,0,1,8.4-.87c5,0,5.82,1.06,5.82,4.46v3h-7.45c-7.12,0-10.16,2.94-10.16,9.82,0,6.58,3.33,10.36,9.14,10.36a18.67,18.67,0,0,0,9.55-2.64l.3,1.09a1.18,1.18,0,0,0,1.13.87h5.61A1.18,1.18,0,0,0,260.5,46V24.9c0-9.09-3.78-12.47-14-12.47Z"/><path class="cls-1" d="M277.92,26.11c-4.31-1.11-4.31-1.16-4.31-3.52,0-1.59.16-2.35,3.71-2.35a57.58,57.58,0,0,1,8.33.82A1.18,1.18,0,0,0,287,20l.65-5.3a1.18,1.18,0,0,0-.9-1.29,45.57,45.57,0,0,0-9.45-1c-10.69,0-12.88,4-12.88,10.09,0,6.66,1.24,8.9,9.43,10.89,5.39,1.3,5.39,2.26,5.39,3.86,0,2.1-.18,2.83-3.71,2.83a36.6,36.6,0,0,1-9-1.21,1.18,1.18,0,0,0-1.46.93l-.92,5a1.18,1.18,0,0,0,.8,1.33,40.15,40.15,0,0,0,11,1.74c10.35,0,12.47-4.33,12.47-10.84,0-7.18-1.28-8.51-10.51-11Z"/><path class="cls-1" d="M304.77,26.11c-4.31-1.11-4.31-1.16-4.31-3.52,0-1.59.16-2.35,3.71-2.35a57.6,57.6,0,0,1,8.33.82,1.18,1.18,0,0,0,1.37-1l.65-5.3a1.18,1.18,0,0,0-.9-1.29,45.58,45.58,0,0,0-9.45-1c-10.69,0-12.88,4-12.88,10.09,0,6.66,1.24,8.9,9.43,10.89,5.39,1.3,5.39,2.26,5.39,3.86,0,2.1-.18,2.83-3.71,2.83a36.6,36.6,0,0,1-9-1.21,1.18,1.18,0,0,0-1.46.93l-.92,5a1.18,1.18,0,0,0,.79,1.33,40.14,40.14,0,0,0,11,1.74c10.35,0,12.47-4.33,12.47-10.84,0-7.18-1.27-8.51-10.51-11Z"/><path class="cls-1" d="M327.26,0h-6.95a1.18,1.18,0,0,0-1.18,1.18V7.35a1.18,1.18,0,0,0,1.18,1.18h6.95a1.18,1.18,0,0,0,1.18-1.18V1.18A1.18,1.18,0,0,0,327.26,0Z"/><path class="cls-1" d="M327.26,13.11h-6.95a1.18,1.18,0,0,0-1.18,1.18V46a1.18,1.18,0,0,0,1.18,1.18h6.95A1.18,1.18,0,0,0,328.44,46V14.28a1.18,1.18,0,0,0-1.18-1.18Z"/><path class="cls-1" d="M350,34.71v4.09a12.5,12.5,0,0,1-5.75,1.49c-2.17,0-2.83-.66-2.83-2.83s.41-2.76,3-2.76ZM345.3,12.43a44.7,44.7,0,0,0-10.91,1.41,1.17,1.17,0,0,0-.85,1.32l.81,5a1.18,1.18,0,0,0,1.39,1,45.64,45.64,0,0,1,8.4-.87c5,0,5.82,1.06,5.82,4.46v3h-7.45c-7.12,0-10.16,2.94-10.16,9.82,0,6.58,3.33,10.36,9.14,10.36A18.67,18.67,0,0,0,351,45.26l.3,1.09a1.17,1.17,0,0,0,1.13.87h5.61A1.18,1.18,0,0,0,359.27,46V24.9c0-9.09-3.79-12.47-14-12.47Z"/><path class="cls-1" d="M385,12.43A33.31,33.31,0,0,0,372,15.69L371.53,14a1.18,1.18,0,0,0-1.13-.85h-5.14a1.18,1.18,0,0,0-1.18,1.18V46a1.18,1.18,0,0,0,1.18,1.18h6.95A1.18,1.18,0,0,0,373.38,46V24c2.5-1.27,6-2.59,8.13-2.59,1.56,0,2.15.58,2.15,2.15V46a1.18,1.18,0,0,0,1.18,1.18h6.95A1.18,1.18,0,0,0,393,46V22.72c0-6.83-2.69-10.29-8-10.29Z"/><path class="cls-1" d="M488.48,200c9.79,3.74,23.43,6.07,35.58,6.07,33.92,0,40.55-12.53,40.55-34.16,0-11.65-.24-19.07-5-24.65-4.32-5.07-12.09-8.42-29.69-12.8-11.3-2.83-17.85-4.58-20.82-7.52-2.64-2.62-2.92-6.75-2.92-15.55,0-13.38,3.18-17.54,23-17.54A149.14,149.14,0,0,1,559,97a2,2,0,0,0,2.41-1.76l1-10.82a2,2,0,0,0-1.5-2.13,142.47,142.47,0,0,0-32.14-3.79c-33.05,0-39.82,12.92-39.82,32.32,0,11.49.39,20.1,5.43,26.18s14.12,9,28.18,12.19c12.42,2.82,18.87,4.68,21.85,7.63,2.71,2.68,3,6.56,3,15.45,0,14.49-5,18.46-23,18.46a115.75,115.75,0,0,1-32.6-4.88,2,2,0,0,0-2.53,1.53l-2.06,10.36a2,2,0,0,0,1.25,2.26Z"/><path class="cls-1" d="M595.27,145.26c0-12.62,6.82-19,20.28-19s20.27,6.4,20.27,19v27c0,12.61-6.82,19-20.27,19s-20.28-6.39-20.28-19v-27Zm57.34.55c0-6.06-1.13-14.78-6.49-21.91-6.21-8.26-16.5-12.44-30.57-12.44S591.2,115.65,585,123.9c-5.36,7.13-6.49,15.85-6.49,21.91v25.94c0,6.06,1.13,14.78,6.49,21.9,6.22,8.25,16.5,12.44,30.57,12.44s24.35-4.18,30.57-12.44c5.37-7.12,6.49-15.84,6.49-21.9V145.81Z"/><path class="cls-1" d="M960.61,168v16.44c-6.93,4.42-15.31,7-22.48,7-10.35,0-12-2.9-12-12.21,0-8.54,3-11.28,12.37-11.28Zm-17.88-56.55a125.21,125.21,0,0,0-28.41,3.59,2,2,0,0,0-1.5,2.21l1.31,9.76a2,2,0,0,0,2.37,1.7,148.43,148.43,0,0,1,25.32-2.65c15.81,0,18.8,5.07,18.8,14.41V153.8H937.4c-19.67,0-28.06,7.74-28.06,25.88,0,17.29,8.43,26.43,24.39,26.43,10.64,0,20.71-2.82,28.52-8l.61,4.41a2,2,0,0,0,2,1.72H975.4a2,2,0,0,0,2-2v-61c0-20.85-10.37-29.75-34.67-29.75Z"/><path class="cls-1" d="M1080,125.7c13,0,18.07,5.28,18.07,18.83v6.69H1061v-6.69c0-13,5.86-18.83,19-18.83Zm0-14.23c-11.68,0-20.65,2.9-26.67,8.63s-9.1,14.34-9.1,25.53v26.86c0,22.93,11.49,33.6,36.14,33.6a99.14,99.14,0,0,0,30.78-4.81,2,2,0,0,0,1.32-2.21l-1.61-9.81a2,2,0,0,0-2-1.68,1.9,1.9,0,0,0-.49.06,110.23,110.23,0,0,1-26.74,3.85c-16,0-20.64-4.3-20.64-19.19v-6.87h51.29a2,2,0,0,0,2-2V146c0-23.24-11.22-34.53-34.31-34.53Z"/><path class="cls-1" d="M716.53,125.75l1-10.23a2,2,0,0,0-2-2.2h-23.4V98.91c0-9.15,2.42-11.65,11.27-11.65a88.89,88.89,0,0,1,13.38,1.39,2,2,0,0,0,2.33-1.76l1-9.44a2,2,0,0,0-1.45-2.14A63.93,63.93,0,0,0,701.41,73c-17,0-26,8.44-26,24.41v15.88H661.56a2,2,0,0,0-2,2v10.23a2,2,0,0,0,2,2h13.81v74.72a2,2,0,0,0,2,2h12.79a2,2,0,0,0,2-2V127.55h22.38a2,2,0,0,0,2-1.8Z"/><path class="cls-1" d="M1034.71,112.3a2,2,0,0,0-1-.25,2,2,0,0,0-.8.17,114.73,114.73,0,0,0-22.17,13l-.74-10a2,2,0,0,0-2-1.85H997.16a2,2,0,0,0-2,2v87a2,2,0,0,0,2,2H1010a2,2,0,0,0,2-2V142.13a202.58,202.58,0,0,1,24.3-14.78,2,2,0,0,0,1.09-2.08l-1.64-11.5a2,2,0,0,0-1-1.47Z"/><path class="cls-1" d="M770.7,191.45a2,2,0,0,0-2-1.67,2,2,0,0,0-.48.06,53,53,0,0,1-12.78,1.84c-8.11,0-8.51-3.35-8.51-9.26V127.53h22.19a2,2,0,0,0,2-2V115.3a2,2,0,0,0-2-2H747V91.22a2,2,0,0,0-2-2l-.28,0-12.8,1.83a2,2,0,0,0-1.72,2V113.3h-23.8a2,2,0,0,0-2,2v10.23a2,2,0,0,0,2,2h23.8V185c0,7.44,1.81,12.71,5.54,16.11s9.24,5,17.38,5a56.88,56.88,0,0,0,17.9-3,2,2,0,0,0,1.33-2.23l-1.6-9.45Z"/><path class="cls-1" d="M900.54,113.32h-12a2,2,0,0,0-2,1.61L872.47,185.5l-20.64-70.74a2,2,0,0,0-1.92-1.44H833.16a2,2,0,0,0-1.92,1.44L810.6,185.51l-14.12-70.58a2,2,0,0,0-2-1.61h-12a2,2,0,0,0-2,2.42l18.54,87a2,2,0,0,0,2,1.58h17.77a2,2,0,0,0,1.92-1.45l20.76-72.75,20.77,72.75a2,2,0,0,0,1.92,1.45H882a2,2,0,0,0,2-1.58l18.54-87a2,2,0,0,0-2-2.42Z"/></g></g></svg>